<svg xmlns="http://www.w3.org/2000/svg" viewBox="0 0 423.8 127.3" enable-background="new 0 0 423.8 127.3"><g fill="#0095db"><path d="M0,0.1h29.3c19.3,0,26.1,14.3,26.1,28.9c0,17.8-9.4,29-29.6,29H0V0.1L0,0.1z M17.9,43.2h7
		c11.1,0,12.7-9,12.7-14.4c0-3.7-1.1-13.8-14-13.8h-5.7V43.2L17.9,43.2z"/><path d="M76,11.4H60V0.1H76V11.4L76,11.4z M60,15.9H76v42.1H60V15.9L60,15.9z"/><path d="M124.2,48.6c0,3.2,0.2,6.7,1.9,9.4h-16.4c-0.4-1.1-0.6-2.8-0.6-4h-0.2c-3.4,3.9-8.4,5-13.6,5
		c-8.1,0-14.8-3.9-14.8-12.7c0-13.3,15.6-12.8,23.8-14.4c2.2-0.4,4.4-1.1,4.4-3.7c0-2.8-2.7-3.9-5.3-3.9c-5,0-5.9,2.5-6,4.3H82.6
		c0.5-11.9,11.7-13.8,21.7-13.8c20.1,0,20,8.4,20,16.5V48.6L124.2,48.6z M108.8,39.1c-1.9,1-4.1,1.5-6.3,2C98.9,42,97,42.9,97,45.7
		c0,2,2.1,3.9,5,3.9c3.7,0,6.5-2.2,6.7-6.6V39.1L108.8,39.1z"/><polygon points="130.6,0.1 146.7,0.1 146.7,28.1 156.9,15.9 175.1,15.9 160.1,31.8 177.5,58.1 158.1,58.1 
		149.5,42.8 146.7,45.9 146.7,58.1 130.6,58.1 130.6,0.1 	"/><path d="M198.2,59.1c-15.8,0-23-10.5-23-22.2c0-11.7,7.1-22.1,23-22.1s23,10.4,23,22.1
		C221.2,48.6,214.1,59.1,198.2,59.1L198.2,59.1z M198.2,26.6c-6.1,0-6.9,5.9-6.9,10.4c0,4.5,0.8,10.5,6.9,10.5c6.1,0,6.9-6,6.9-10.5
		C205.1,32.5,204.3,26.6,198.2,26.6L198.2,26.6z"/><path d="M226.1,15.9h15.5v5.4h0.2c3-4.2,7.3-6.4,13.7-6.4c7.5,0,14.4,4.6,14.4,14.3v28.9h-16.1V36
		c0-4.9-0.6-8.3-5.3-8.3c-2.8,0-6.4,1.4-6.4,8.1v22.2h-16.1V15.9L226.1,15.9z"/><path d="M292.4,11.4h-16.1V0.1h16.1V11.4L292.4,11.4z M276.4,15.9h16.1v42.1h-16.1V15.9L276.4,15.9z"/><path d="M311.9,40.6c0.4,4.8,3.2,8.2,8.2,8.2c2.6,0,5.4-1,6.7-3h15c-3.2,9.1-12.1,13.3-21.7,13.3
		c-13.5,0-23.6-8-23.6-22c0-12.3,8.9-22.2,22.2-22.2c16.7,0,23.9,9.3,23.9,25.7H311.9L311.9,40.6z M327.3,32.2
		c0-3.9-2.9-7.1-7.1-7.1c-4.8,0-7.5,2.5-8.3,7.1H327.3L327.3,32.2z"/><path d="M385.9,26.6c-4.4,0-8-3.4-8-7.5c0-4.3,3.6-7.6,8-7.6c4.4,0,7.9,3.4,7.9,7.6v7.5H385.9L385.9,26.6
		L385.9,26.6z"/><path d="M393.8,0h-26.6v26.6h8.9c-1.8-2-2.9-4.7-2.9-7.5c0-6.7,5.6-12.1,12.6-12.1c3,0,5.7,1,7.9,2.7V0L393.8,0z"/><path d="M406.6,26.6c4.4,0,8-3.4,8-7.5c0-4.3-3.5-7.6-8-7.6c-4.4,0-7.9,3.4-7.9,7.6v7.5H406.6L406.6,26.6
		L406.6,26.6z"/><path d="M398.6,0h26.6v26.6h-8.9c1.8-2,2.8-4.7,2.8-7.5c0-6.7-5.6-12.1-12.5-12.1c-3,0-5.7,1-7.9,2.7V0L398.6,0z"/><polygon points="367.3,31.4 393.8,31.4 393.8,58 367.3,58 367.3,31.4 	"/></g><g fill="#49b8ea"><polygon points="398.6,31.4 425.2,31.4 425.2,58 398.6,58 398.6,31.4 	"/><path d="M0.6,116h5.1V98.3h17.7V94H5.7V81.7h20.2v-4.3H0.6V116L0.6,116z M32.1,116h4.6V77.4h-4.6V116L32.1,116z
		 M68.1,88h-4.6v15.8c0,5-2.7,8.7-8.3,8.7c-3.5,0-5.7-2.2-5.7-5.6V88H45v18.4c0,6,2.3,10.2,9.6,10.2c4,0,7.1-1.6,9.1-5.1h0.1v4.4
		h4.3V88L68.1,88z M49,83.5h4.9v-5.6H49V83.5L49,83.5z M59.2,83.5H64v-5.6h-4.9V83.5L59.2,83.5z M100.4,97c-0.7-6.6-5.7-9.6-12-9.6
		c-8.9,0-13.2,6.6-13.2,15s4.5,14.3,13.1,14.3c7.1,0,11.3-4,12.3-10.9h-4.7c-0.6,4.3-3.2,6.8-7.7,6.8c-5.8,0-8.2-5-8.2-10.2
		c0-5.6,2.1-10.9,8.7-10.9c3.8,0,6.2,2.1,6.9,5.6H100.4L100.4,97z M107.2,116h4.6v-15.8c0-5,2.7-8.7,8.3-8.7c3.5,0,5.7,2.2,5.7,5.6
		V116h4.6V97.6c0-6-2.3-10.2-9.6-10.2c-3.3,0-7.3,1.4-8.8,4.8h-0.1V77.4h-4.6V116L107.2,116z M144.9,79.7h-4.6V88h-4.8v4h4.8v17.8
		c0,5.1,1.9,6.1,6.6,6.1h3.5v-4.1h-2.1c-2.9,0-3.5-0.3-3.5-2.5V92.1h5.6v-4h-5.6V79.7L144.9,79.7z M156.9,116h4.6V77.4h-4.6V116
		L156.9,116z M174.6,77.4H170V83h4.6V77.4L174.6,77.4z M170,116h4.6V88H170V116L170,116z M183,116h4.6v-15.8c0-5,2.7-8.7,8.3-8.7
		c3.5,0,5.7,2.2,5.7,5.6V116h4.6V97.6c0-6-2.3-10.2-9.6-10.2c-4,0-7.1,1.6-9.1,5.1h-0.1V88H183V116L183,116z M238.7,88h-4.3v4h-0.1
		c-1.7-3.1-4.8-4.6-8.3-4.6c-9.7,0-12.9,8.2-12.9,14.7c0,7.6,4.2,14.1,12.5,14.1c3.6,0,7.1-1.7,8.7-5.1h0.1v1.8
		c0,6.3-2.4,10.6-8.4,10.6c-3,0-7.1-1.2-7.2-4.5h-4.6c0.3,6,6.3,8.2,11.6,8.2c8.9,0,13-4.6,13-13.7V88L238.7,88z M225.8,112.2
		c-6,0-7.9-5.6-7.9-10.6c0-5.3,2.4-10.2,8.3-10.2c5.8,0,7.9,5.1,7.9,10C234.1,106.7,231.9,112.2,225.8,112.2L225.8,112.2z
		 M244.4,107.2c0.3,6.9,5.6,9.4,11.8,9.4c5.7,0,11.9-2.1,11.9-8.8c0-5.3-4.5-6.9-9.1-7.9c-4.3-1-9.1-1.6-9.1-4.9
		c0-2.8,3.2-3.6,5.9-3.6c3,0,6.2,1.1,6.5,4.7h4.6c-0.4-6.8-5.2-8.7-11.4-8.7c-4.9,0-10.4,2.3-10.4,7.9c0,10.7,18.3,5.9,18.3,13.1
		c0,3.5-3.9,4.2-6.8,4.2c-3.7,0-7.3-1.3-7.5-5.4H244.4L244.4,107.2z M278.2,102.2c0-5.5,2.1-10.8,8.4-10.8c6.3,0,8.8,5.1,8.8,10.6
		c0,5.2-2.3,10.5-8.5,10.5C280.9,112.6,278.2,107.5,278.2,102.2L278.2,102.2z M299.8,77.4h-4.6v14.4h-0.1c-2-3.3-6.2-4.4-9-4.4
		c-8.5,0-12.7,6.6-12.7,14.5c0,7.9,4.3,14.7,12.9,14.7c3.9,0,7.4-1.3,8.9-4.4h0.1v3.8h4.6V77.4L299.8,77.4z M312.7,77.4h-4.6V83h4.6
		V77.4L312.7,77.4z M308.1,116h4.6V88h-4.6V116L308.1,116z M324.6,99.3c0.3-4.3,3.2-7.9,8-7.9c4.6,0,7.8,3.5,8,7.9H324.6L324.6,99.3
		z M340.5,107.1c-0.8,3.7-3.4,5.5-7.2,5.5c-6.1,0-8.9-4.3-8.7-9.2h20.9c0.3-6.8-2.8-16-12.6-16c-7.6,0-13.1,6.1-13.1,14.5
		c0.3,8.5,4.5,14.7,13.4,14.7c6.3,0,10.7-3.3,11.9-9.5H340.5L340.5,107.1z M352.1,116h4.6v-15.8c0-5,2.7-8.7,8.3-8.7
		c3.5,0,5.7,2.2,5.7,5.6V116h4.6V97.6c0-6-2.3-10.2-9.6-10.2c-4,0-7.1,1.6-9.1,5.1h-0.1V88h-4.3V116L352.1,116z M381.5,107.2
		c0.3,6.9,5.6,9.4,11.8,9.4c5.7,0,11.9-2.1,11.9-8.8c0-5.3-4.5-6.9-9.1-7.9c-4.3-1-9.1-1.6-9.1-4.9c0-2.8,3.2-3.6,5.9-3.6
		c3,0,6.2,1.1,6.5,4.7h4.6c-0.4-6.8-5.2-8.7-11.4-8.7c-4.9,0-10.4,2.3-10.4,7.9c0,10.7,18.3,5.9,18.3,13.1c0,3.5-3.9,4.2-6.8,4.2
		c-3.7,0-7.3-1.3-7.5-5.4H381.5L381.5,107.2z M418.3,79.7h-4.6V88h-4.8v4h4.8v17.8c0,5.1,1.9,6.1,6.6,6.1h3.5v-4.1h-2.1
		c-2.9,0-3.5-0.3-3.5-2.5V92.1h5.6v-4h-5.6V79.7L418.3,79.7z"/></g></svg>